<svg id="Pardubice" xmlns="http://www.w3.org/2000/svg" viewBox="0 0 138.19 158.55"><defs><style>.cls-1{fill:none;stroke:#fff;stroke-linecap:round;stroke-linejoin:round;stroke-width:4px;}</style></defs><title>Pardubice</title><path class="cls-1" d="M31.84,79.58L39.31,64,36,56.45,42.56,48,24,55V44l10.77-6s-5.84-1.62-6.17-7.79c0,0,10.71,6.49,15.58,3.57a16.41,16.41,0,0,1,9-3.57" transform="translate(-22 -17.19)"/><polyline class="cls-1" points="15.69 62.39 4.65 65.31 2.38 74.4 5.62 82.84 20.56 76.03"/><circle class="cls-1" cx="24.56" cy="74.38" r="4.38"/><line class="cls-1" x1="9.84" y1="69.99" x2="8.55" y2="74.38"/><polyline class="cls-1" points="25 44.8 25 37.8 32.07 30.42"/><path class="cls-1" d="M51,50.82s7,9.69-4,7.66" transform="translate(-22 -17.19)"/><polyline class="cls-1" points="31.2 18.23 37.12 2 44.26 16.61"/><path class="cls-1" d="M63.52,28.2s13.78-6.74,21.89-2.51,10.71-3.9,7.47-6.49c0,0,10.39,4.22,9.09,12.66,0,0,12.66,2.6,14.61,10.71s15.26,1.95,12.66-1.95c0,0,5.21.32,0.33,14.29,0,0,18.22,10.09,12.35,26.64L62.39,103,51,91.57V103l9.42-11.43-3.9-10,4.55-8.45s21.77,4.16,23.38-12.34C85.74,47.44,75,42.57,75,42.57" transform="translate(-22 -17.19)"/><path class="cls-1" d="M80.47,69.41S93.57,69.52,90,85.1c0,0-9.28,17.53,4.11,29.87" transform="translate(-22 -17.19)"/><path class="cls-1" d="M96.11,63.82s7.44,3.66,8,11.18" transform="translate(-22 -17.19)"/><path class="cls-1" d="M72.71,33.38S85.47,31.71,90,36.91,88.45,44,88.45,44l18.71,3.61S115,54.16,112,62l8.44-3.24s5.2,12-4.22,22.12l14.94-7.14" transform="translate(-22 -17.19)"/><path class="cls-1" d="M141.94,81.55s6.47,13.9,16.21,5.64c0,0,1.3,7.23-9.74,8.25s-15.26-3.87-15.26-3.87" transform="translate(-22 -17.19)"/><line class="cls-1" x1="40.03" y1="133.65" x2="29.12" y2="141.85"/><path class="cls-1" d="M147,95.55s3.14,15,11,16.69v30.1s-34.91,17.74-60.66-3.1c-12.6-10.2-34.5-9.57-34.5-9.57L62,150.85c5.17,4.1,7.53,11.95,7.53,11.95l-9.3,10.95A18.3,18.3,0,0,1,51.12,159l-6.94-5.47,5.11-6.15-1.87-18.79-3.25-8.2,8-6.51,8,3.44,28.7-9.3" transform="translate(-22 -17.19)"/></svg>