<svg id="Brno" xmlns="http://www.w3.org/2000/svg" viewBox="0 0 145 159"><defs><style>.cls-1{fill:none;stroke:#fff;stroke-linecap:round;stroke-linejoin:round;stroke-width:4px;}</style></defs><title>brno icon</title><polyline class="cls-1" points="143 157 2 157 2 118.75 23.24 84 85 84"/><polyline class="cls-1" points="77 157 77 102 109 102 109 157"/><polyline class="cls-1" points="85 102 85 66 101 66 101 102"/><polyline class="cls-1" points="76 119 2 119 2 102"/><polyline class="cls-1" points="109 129 143 129 143 157"/><polyline class="cls-1" points="142.97 129.93 132.65 113 109 113"/><polyline class="cls-1" points="101 84 109.43 84 123.14 112.69"/><line class="cls-1" x1="23" y1="84" x2="23" y2="73"/><line class="cls-1" x1="110" y1="84" x2="110" y2="73"/><polyline class="cls-1" points="87.27 62.69 92.69 11.85 98.13 62.69"/><polyline class="cls-1" points="120.74 66.16 126.16 12.3 131.6 66.16"/><line class="cls-1" x1="85" y1="65" x2="85" y2="52"/><line class="cls-1" x1="101" y1="65" x2="101" y2="52"/><line class="cls-1" x1="118" y1="66" x2="118" y2="52"/><line class="cls-1" x1="134" y1="66" x2="134" y2="52"/><line class="cls-1" x1="77" y1="102" x2="77" y2="93"/><line class="cls-1" x1="109" y1="102" x2="109" y2="93"/><polyline class="cls-1" points="23 111 31.73 111 37.29 100.62"/><polyline class="cls-1" points="49 111 58.03 111 63.44 100.62"/><polyline class="cls-1" points="118 102 118 66 134 66 134 114.07 134 104"/><path class="cls-1" d="M79,162V135.43S64.82,127.77,64.82,162" transform="translate(-19 -5)"/><path class="cls-1" d="M50,162V135.43S35.82,127.77,35.82,162" transform="translate(-19 -5)"/><line class="cls-1" x1="77" y1="113" x2="109" y2="113"/><line class="cls-1" x1="93" y1="5" x2="93" y2="2"/><line class="cls-1" x1="126" y1="5" x2="126" y2="2"/></svg>