<svg id="Liberec" xmlns="http://www.w3.org/2000/svg" viewBox="0 0 159 168.38"><defs><style>.cls-1,.cls-2{fill:none;}.cls-1{stroke:#fff;stroke-linecap:round;stroke-linejoin:round;stroke-width:4px;}</style></defs><title>Liberec icon</title><line class="cls-1" x1="2" y1="166.38" x2="157" y2="166.38"/><path class="cls-2" d="M88.59,100" transform="translate(-11 -4.62)"/><polyline class="cls-1" points="66 166.38 66 52.38 88 52.38 88 166.38"/><polygon class="cls-1" points="87.59 52.38 77.59 9.18 66 52.38 87.59 52.38"/><line class="cls-1" x1="66" y1="52.38" x2="66" y2="30.38"/><line class="cls-1" x1="88" y1="52.38" x2="88" y2="30.38"/><line class="cls-1" x1="66" y1="128.38" x2="88" y2="128.38"/><line class="cls-1" x1="66" y1="118.38" x2="88" y2="118.38"/><line class="cls-1" x1="77.59" y1="2" x2="77.59" y2="2"/><path class="cls-1" d="M85,171V148s3-6.06,6,0l0.5,23" transform="translate(-11 -4.62)"/><polyline class="cls-1" points="106 166.38 106 103.38 88 103.38 97 89.73 106 103.38"/><polyline class="cls-1" points="48 103.38 57 89.73 66 103.38 48 103.38 48 166.38"/><line class="cls-1" x1="48" y1="148.38" x2="66" y2="148.38"/><line class="cls-1" x1="88" y1="148.38" x2="106" y2="148.38"/><circle class="cls-1" cx="76.76" cy="91.5" r="4.66"/><line class="cls-1" x1="57" y1="89.38" x2="57" y2="83.38"/><line class="cls-1" x1="97" y1="89.38" x2="97" y2="83.38"/><polyline class="cls-1" points="31 166.38 31 103.38 48 103.38 39.5 81.79 31 103.38"/><polyline class="cls-1" points="123 166.38 123 103.38 106 103.38 114.5 81.79 123 103.38"/><line class="cls-1" x1="114" y1="73.38" x2="114" y2="65.38"/><line class="cls-1" x1="39" y1="73.38" x2="39" y2="65.38"/><polyline class="cls-1" points="31 135.38 14 135.38 14 166.38"/><polyline class="cls-1" points="123 135.38 141 135.38 141 166.38"/><path class="cls-1" d="M33.5,171s-2.43-18.26,8.5-18" transform="translate(-11 -4.62)"/><path class="cls-1" d="M143,171s1.34-17.61-9-18" transform="translate(-11 -4.62)"/><line class="cls-1" x1="48" y1="112.38" x2="66" y2="112.38"/><line class="cls-1" x1="88" y1="112.38" x2="106" y2="112.38"/><line class="cls-1" x1="31" y1="124.38" x2="48" y2="124.38"/><line class="cls-1" x1="106" y1="124.38" x2="123" y2="124.38"/><line class="cls-1" x1="66" y1="62.38" x2="88" y2="62.38"/><polyline class="cls-1" points="41.49 86.64 52.74 69.38 66 69.38"/><polyline class="cls-1" points="88 69.38 103 69.38 112.18 84.56"/><polyline class="cls-1" points="35 89.38 28 89.38 14 135.38"/><line class="cls-1" x1="28" y1="89.38" x2="28" y2="80.38"/><polyline class="cls-1" points="120 89.38 126 89.38 140.89 135.38"/><line class="cls-1" x1="126" y1="89.38" x2="126" y2="80.38"/></svg>