<svg id="Budejovice" xmlns="http://www.w3.org/2000/svg" viewBox="0 0 155 144"><defs><style>.cls-1{fill:none;stroke:#fff;stroke-linecap:round;stroke-linejoin:round;stroke-width:4px;}</style></defs><title>Ceske Budejovice</title><path class="cls-1" d="M71.71,115h39.74s4.58,23.9-19.87,37C91.58,152,67.84,143,71.71,115Z" transform="translate(-14 -19)"/><polyline class="cls-1" points="57 114 2 114 2 142 153 142 153 115 95 115"/><polyline class="cls-1" points="65 96 65 37 89 37 89 96"/><polyline class="cls-1" points="65 37 77.33 15.69 89 37"/><line class="cls-1" x1="78" y1="8" x2="78" y2="2"/><polyline class="cls-1" points="21 113 21 66 45 66 45 113"/><polyline class="cls-1" points="21 66 32.1 45.41 45 66"/><line class="cls-1" x1="32" y1="38" x2="32" y2="31"/><polyline class="cls-1" points="110 115 110 66 134 66 134 115"/><polyline class="cls-1" points="110.09 66.17 122.01 45.41 133.93 66.17"/><line class="cls-1" x1="122" y1="38" x2="122" y2="31"/><line class="cls-1" x1="65" y1="51" x2="89" y2="51"/><line class="cls-1" x1="65" y1="67" x2="89" y2="67"/><line class="cls-1" x1="65" y1="83" x2="89" y2="83"/><line class="cls-1" x1="21" y1="98" x2="45" y2="98"/><line class="cls-1" x1="21" y1="83" x2="45" y2="83"/><line class="cls-1" x1="110" y1="83" x2="134" y2="83"/><line class="cls-1" x1="110" y1="98" x2="134" y2="98"/><line class="cls-1" x1="78" y1="37" x2="78" y2="51"/><line class="cls-1" x1="78" y1="69" x2="78" y2="83"/><line class="cls-1" x1="2" y1="127" x2="67" y2="127"/><line class="cls-1" x1="87" y1="127" x2="153" y2="127"/><line class="cls-1" x1="32" y1="114" x2="32" y2="127"/><line class="cls-1" x1="122" y1="117" x2="122" y2="127"/><line class="cls-1" x1="57" y1="127" x2="57" y2="142"/><line class="cls-1" x1="110" y1="127" x2="110" y2="142"/></svg>