<svg id="Plzen" xmlns="http://www.w3.org/2000/svg" viewBox="0 0 133 168.6"><defs><style>.cls-1{fill:none;stroke:#fff;stroke-linecap:round;stroke-linejoin:round;stroke-width:4px;}</style></defs><title>Pardubice</title><polyline class="cls-1" points="20 166.6 20 115.79 30 105.6 30 66.82 25 61.6 7.95 61.6 2 67.6 2 166.6 131 166.6 131 132.6 115 132.6"/><polyline class="cls-1" points="30 105.6 104 105.6 114.52 116.29 115.4 166.6"/><line class="cls-1" x1="2" y1="67.6" x2="30" y2="67.6"/><polygon class="cls-1" points="25 61.6 16 2 7.95 61.6 25 61.6"/><path class="cls-1" d="M35,102V86s4-7.62,8,0v16H35Z" transform="translate(-23 -5.4)"/><line class="cls-1" x1="20" y1="115.6" x2="112" y2="115.6"/><line class="cls-1" x1="20" y1="132.6" x2="2" y2="132.6"/><polyline class="cls-1" points="30 96.6 103 96.6 103 105.6"/><polyline class="cls-1" points="103 96.86 88.73 82.6 30 82.6"/><line class="cls-1" x1="69" y1="82.6" x2="69" y2="73.6"/><line class="cls-1" x1="69" y1="67.6" x2="69" y2="64.6"/><line class="cls-1" x1="41" y1="115.6" x2="41" y2="166.6"/><line class="cls-1" x1="95" y1="115.6" x2="95" y2="166.6"/><line class="cls-1" x1="69" y1="115.6" x2="69" y2="166.6"/><line class="cls-1" x1="55" y1="129.6" x2="55" y2="152.6"/><line class="cls-1" x1="31" y1="129.6" x2="31" y2="152.6"/><line class="cls-1" x1="82" y1="129.6" x2="82" y2="152.6"/><line class="cls-1" x1="105" y1="129.6" x2="105" y2="152.6"/><polyline class="cls-1" points="131 133.1 119.02 101.6 103 101.6"/><line class="cls-1" x1="119" y1="101.6" x2="119" y2="89.6"/><line class="cls-1" x1="89" y1="82.6" x2="89" y2="70.6"/></svg>