<svg id="Layer_5" data-name="Layer 5" xmlns="http://www.w3.org/2000/svg" viewBox="0 0 84.08 162.65"><defs><style>.cls-1{fill:none;stroke:#fff;stroke-linecap:round;stroke-linejoin:round;stroke-width:4px;}</style></defs><title>praha icon</title><rect class="cls-1" x="15.04" y="64.34" width="53.83" height="96.31"/><circle class="cls-1" cx="41.96" cy="116.49" r="22.33"/><circle class="cls-1" cx="37.54" cy="110.49" r="11.17"/><line class="cls-1" x1="15.54" y1="74" x2="68.54" y2="74"/><line class="cls-1" x1="41.54" y1="65" x2="41.54" y2="74"/><line class="cls-1" x1="56.54" y1="65" x2="56.54" y2="74"/><line class="cls-1" x1="27.54" y1="65" x2="27.54" y2="74"/><line class="cls-1" x1="56.54" y1="150" x2="29.54" y2="150"/><line class="cls-1" x1="56.54" y1="84" x2="29.54" y2="84"/><line class="cls-1" x1="75.54" y1="30" x2="75.54" y2="28"/><line class="cls-1" x1="8.54" y1="30" x2="8.54" y2="28"/><line class="cls-1" x1="41.54" y1="4" x2="41.54" y2="2"/><line class="cls-1" x1="45.99" y1="98.53" x2="41.41" y2="116.59"/><line class="cls-1" x1="49.77" y1="126.07" x2="41.56" y2="116.64"/><rect class="cls-1" x="2" y="53.48" width="13.04" height="21.36"/><rect class="cls-1" x="69.04" y="53.48" width="13.04" height="21.36"/><polygon class="cls-1" points="15.04 65 41.54 9.33 68.87 65 15.04 65"/><polygon class="cls-1" points="2 53 8.54 35.36 15.04 53 2 53"/><polyline class="cls-1" points="34.77 53 41.43 43.5 48.04 53"/><polygon class="cls-1" points="69 53 75.54 35.36 82.04 53 69 53"/></svg>