<svg id="Ostrava" xmlns="http://www.w3.org/2000/svg" viewBox="0 0 122.55 116.87"><defs><style>.cls-1{fill:none;stroke:#fff;stroke-linecap:round;stroke-linejoin:round;stroke-width:4px;}</style></defs><title>Usti nad labem</title><polyline class="cls-1" points="113.55 10.88 113.55 41.88 60.08 41.88 38.55 51.39 38.55 4.88"/><polyline class="cls-1" points="113.55 26.88 60.55 26.88 38.55 37.16"/><line class="cls-1" x1="89.55" y1="41.87" x2="89.55" y2="114.87"/><polyline class="cls-1" points="46.84 114.88 89.55 44.63 103.56 58.64 92.15 73.44 104.69 88.9 90.97 103.21 106.55 114.88 106.55 41.88"/><polyline class="cls-1" points="29.69 113.24 73.7 41.88 81.08 58.57 64.64 59.88 71.42 74.46 55.38 73.56 60.55 90.22 44.81 91.05 51.7 106.88 35.32 106.21"/><polyline class="cls-1" points="2 113.34 49.1 46.73 53.61 57.39 53.61 57.39 42.7 59.89 43.02 69.36 33.97 71.78 37.05 80.78 24.7 81.24 27.55 91.88 18.58 94.1 20.71 103.81 11.04 104.36 12.86 114.88 64.64 41.88"/><path class="cls-1" d="M94,41s-4.55-9.06-15.11-8.78c0,0,54.62-.34,61.11.27S154,41,154,41H94V72" transform="translate(-33.45 -30.13)"/><path class="cls-1" d="M78.89,32.22S64.85,32,58.67,47H132s5.59-8.78,22-6" transform="translate(-33.45 -30.13)"/></svg>