<svg id="Hradec_Kralove" data-name="Hradec Kralove" xmlns="http://www.w3.org/2000/svg" viewBox="0 0 101 167"><defs><style>.cls-1{fill:none;stroke:#fff;stroke-linecap:round;stroke-linejoin:round;stroke-width:4px;}</style></defs><title>hradec kralove icon</title><polyline class="cls-1" points="37 90 37 55 2 55 2 165 99 165 99 55 62.87 55 63.32 88.69"/><path class="cls-1" d="M66,169V104s14-7.4,35,0v65" transform="translate(-33 -4)"/><polyline class="cls-1" points="33 100 50 65.81 68 100"/><line class="cls-1" x1="2" y1="142" x2="33" y2="142"/><line class="cls-1" x1="68" y1="142" x2="99" y2="142"/><path class="cls-1" d="M77,169V118.16s6.77-9.36,13,0V169" transform="translate(-33 -4)"/><line class="cls-1" x1="50" y1="67" x2="50" y2="55"/><polyline class="cls-1" points="2 55 2 42 9 42 9 55"/><polyline class="cls-1" points="63 55 63 42 70 42 70 55"/><polyline class="cls-1" points="30 55 30 42 37 42 37 57"/><polyline class="cls-1" points="92 54 92 41 99 41 99 56"/><polygon class="cls-1" points="30 42 24.77 13 15.74 13 9.04 42.12 30 42"/><polygon class="cls-1" points="91 42 85.77 13 76.74 13 70.04 42.12 91 42"/><line class="cls-1" x1="16" y1="7" x2="16" y2="2"/><line class="cls-1" x1="2" y1="41" x2="2" y2="36"/><line class="cls-1" x1="37" y1="41" x2="37" y2="36"/><line class="cls-1" x1="63" y1="41" x2="63" y2="36"/><line class="cls-1" x1="99" y1="41" x2="99" y2="36"/><line class="cls-1" x1="24" y1="7" x2="24" y2="2"/><line class="cls-1" x1="77" y1="7" x2="77" y2="2"/><line class="cls-1" x1="85" y1="7" x2="85" y2="2"/><line class="cls-1" x1="2" y1="70" x2="37" y2="70"/><line class="cls-1" x1="63" y1="70" x2="99" y2="70"/><rect class="cls-1" x="77" y="85" width="9" height="26"/><rect class="cls-1" x="15" y="85" width="9" height="26"/></svg>